<svg width="601" height="407" viewBox="0 0 601 407" fill="none" xmlns="http://www.w3.org/2000/svg">
<path d="M155.993 173.215C143.955 167.869 132.153 162.025 121.975 153.257C116.8 148.8 111.554 144.272 107.156 139.023C99.5068 129.894 93.5643 119.538 89.8252 107.91C87.1219 99.5028 85.5567 90.9542 86.111 82.0209C86.5284 75.2948 85.9571 68.3976 87.1914 61.8602C88.4219 55.3429 91.1469 49.0891 93.5982 42.8856C95.9721 36.878 99.6093 31.6236 103.75 26.7802C112.005 17.1247 121.614 9.55472 133.38 5.13592C147.773 -0.269275 162.458 -1.23186 177.447 1.42264C189.519 3.56044 200.283 8.81955 209.894 16.6493C218.418 23.5938 225.186 32.1187 230.052 42.284C231.194 44.6697 231.409 46.6111 230.115 49.1878C226.632 56.1233 222.488 62.4228 217.49 68.3082C213.076 73.5061 207.833 77.4787 202.724 81.6929C197.09 86.3408 190.513 89.1939 183.909 91.9719C174.231 96.0432 164.384 100.019 156.445 107.295C148.898 114.211 143.08 122.48 141.939 133.549C141.488 137.917 141.079 142.172 142.445 146.777C142.29 147.44 142.132 147.737 141.867 148.218C141.878 153.982 143.38 158.927 147.653 162.813C148.21 163.66 148.778 164.293 149.345 165.146C150.39 166.435 151.436 167.506 152.573 168.716C153.457 169.609 154.329 170.291 155.014 171.139C155.476 171.71 155.676 172.515 155.993 173.215ZM178.061 35.7481C177.109 40.0208 178.181 43.2028 181.496 45.6912C184.234 47.7465 187.23 47.6465 190.032 46.1179C192.993 44.5025 194.695 41.6304 194.394 38.126C194.125 34.9967 192.513 32.436 189.723 30.8262C185.402 28.3335 180.338 30.9514 178.061 35.7481Z" fill="#57AEB2"/>
<path d="M143.12 147.475C149.058 151.673 155.645 154.008 162.582 155.81C170.849 157.957 179.119 160.429 186.991 163.785C191.42 165.673 195.497 169.099 198.071 173.788C198.431 174.444 198.734 175.188 198.836 175.926C198.916 176.501 198.826 177.419 198.479 177.659C198.092 177.928 197.266 177.759 196.744 177.515C192.721 175.634 188.741 173.653 184.709 171.796C183.996 171.468 183.103 171.571 182.117 171.716C188.096 177.247 195.733 181.442 196.013 190.977C192.397 188.844 188.859 186.776 185.343 184.665C184.72 184.29 184.194 183.736 183.399 182.944C179.295 181.07 175.476 179.314 171.522 178.012C165.458 176.015 159.608 173.719 154.81 169.124C154.176 168.517 153.181 168.324 152.2 167.846C151.663 167.291 151.279 166.83 150.873 166.154C150.258 165.272 149.664 164.605 149.1 163.894C149.13 163.852 149.211 163.914 149.193 163.703C148.401 162.463 147.626 161.434 146.88 160.368C146.908 160.331 146.979 160.391 146.97 160.19C146.571 159.529 146.18 159.069 145.803 158.618C145.816 158.628 145.784 158.635 145.807 158.401C144.927 154.603 144.023 151.039 143.12 147.475Z" fill="#194E58"/>
<path d="M152.353 167.939C153.181 168.324 154.176 168.517 154.81 169.124C159.608 173.719 165.458 176.016 171.522 178.012C175.476 179.314 179.295 181.07 183.279 182.777C178.749 181.47 174.082 180.111 169.489 178.517C165.016 176.964 160.618 175.171 156.09 173.349C155.676 172.515 155.476 171.71 155.014 171.139C154.328 170.291 153.457 169.609 152.581 168.548C152.449 168.14 152.401 168.039 152.353 167.939Z" fill="#0E373F"/>
<path d="M143.052 147.355C144.023 151.039 144.927 154.603 145.674 158.253C144.337 154.904 143.156 151.469 141.974 148.033C142.132 147.737 142.29 147.44 142.527 146.995C142.76 146.945 142.886 147.074 143.052 147.355Z" fill="#0E373F"/>
<path d="M178.127 35.5349C180.338 30.9514 185.402 28.3335 189.723 30.8262C192.513 32.436 194.125 34.9967 194.394 38.126C194.695 41.6304 192.993 44.5025 190.032 46.1179C187.231 47.6465 184.234 47.7465 181.496 45.6912C178.181 43.2028 177.109 40.0208 178.127 35.5349Z" fill="white"/>
<path d="M141.867 148.218C143.156 151.469 144.337 154.904 145.651 158.487C145.784 158.635 145.816 158.628 145.852 158.801C146.252 159.446 146.616 159.919 146.979 160.391C146.979 160.391 146.908 160.331 146.929 160.558C147.215 161.363 147.482 161.942 147.727 162.54C147.706 162.56 147.664 162.599 147.664 162.599C143.38 158.927 141.878 153.982 141.867 148.218Z" fill="#62BDBF"/>
<path d="M152.2 167.846C152.401 168.039 152.449 168.14 152.489 168.408C151.436 167.506 150.39 166.435 149.361 165.132C149.378 164.9 149.409 164.872 149.552 164.974C150.095 165.506 150.495 165.937 150.896 166.368C151.279 166.83 151.663 167.291 152.2 167.846Z" fill="#62BDBF"/>
<path d="M149.362 164.913C148.778 164.293 148.21 163.66 147.653 162.813C147.664 162.599 147.706 162.56 147.862 162.648C148.415 163.129 148.813 163.521 149.211 163.914C149.211 163.914 149.13 163.852 149.146 164.056C149.244 164.463 149.326 164.668 149.409 164.872C149.409 164.872 149.378 164.9 149.362 164.913Z" fill="#62BDBF"/>
<path d="M149.193 163.703C148.813 163.521 148.415 163.129 147.883 162.629C147.482 161.942 147.215 161.363 146.9 160.595C147.626 161.434 148.401 162.463 149.193 163.703Z" fill="#0E373F"/>
<path d="M149.552 164.973C149.326 164.668 149.244 164.463 149.116 164.098C149.664 164.605 150.258 165.272 150.873 166.154C150.495 165.937 150.095 165.506 149.552 164.973Z" fill="#0E373F"/>
<path d="M146.97 160.19C146.616 159.919 146.252 159.446 145.84 158.791C146.181 159.069 146.571 159.529 146.97 160.19Z" fill="#0E373F"/>
<path d="M9.024 284V216.8H36.672C42.624 216.8 47.712 217.76 51.936 219.68C56.224 221.6 59.52 224.352 61.824 227.936C64.128 231.52 65.28 235.776 65.28 240.704C65.28 245.632 64.128 249.888 61.824 253.472C59.52 256.992 56.224 259.712 51.936 261.632C47.712 263.488 42.624 264.416 36.672 264.416H15.936L21.504 258.752V284H9.024ZM52.992 284L36 259.616H49.344L66.432 284H52.992ZM21.504 260.096L15.936 254.144H36.096C41.6 254.144 45.728 252.96 48.48 250.592C51.296 248.224 52.704 244.928 52.704 240.704C52.704 236.416 51.296 233.12 48.48 230.816C45.728 228.512 41.6 227.36 36.096 227.36H15.936L21.504 221.216V260.096ZM94.8173 284V257.408L97.6013 265.088L68.4172 216.8H81.7613L105.185 255.68H97.6973L121.313 216.8H133.601L104.417 265.088L107.297 257.408V284H94.8173ZM140.93 284V216.8H172.418C180.482 216.8 186.626 218.4 190.85 221.6C195.074 224.736 197.186 228.96 197.186 234.272C197.186 237.856 196.354 240.928 194.69 243.488C193.026 245.984 190.786 247.936 187.97 249.344C185.218 250.688 182.21 251.36 178.946 251.36L180.674 247.904C184.45 247.904 187.842 248.608 190.85 250.016C193.858 251.36 196.226 253.344 197.954 255.968C199.746 258.592 200.642 261.856 200.642 265.76C200.642 271.52 198.434 276 194.018 279.2C189.602 282.4 183.042 284 174.338 284H140.93ZM153.41 274.208H173.57C178.242 274.208 181.826 273.44 184.322 271.904C186.818 270.368 188.066 267.904 188.066 264.512C188.066 261.184 186.818 258.752 184.322 257.216C181.826 255.616 178.242 254.816 173.57 254.816H152.45V245.12H171.074C175.426 245.12 178.754 244.352 181.058 242.816C183.426 241.28 184.61 238.976 184.61 235.904C184.61 232.768 183.426 230.432 181.058 228.896C178.754 227.36 175.426 226.592 171.074 226.592H153.41V274.208ZM245.45 284.96C240.202 284.96 235.37 284.096 230.954 282.368C226.538 280.64 222.698 278.24 219.434 275.168C216.17 272.032 213.642 268.384 211.85 264.224C210.058 260 209.162 255.392 209.162 250.4C209.162 245.408 210.058 240.832 211.85 236.672C213.642 232.448 216.17 228.8 219.434 225.728C222.698 222.592 226.538 220.16 230.954 218.432C235.37 216.704 240.17 215.84 245.354 215.84C250.602 215.84 255.402 216.704 259.754 218.432C264.17 220.16 268.01 222.592 271.274 225.728C274.538 228.8 277.066 232.448 278.858 236.672C280.65 240.832 281.546 245.408 281.546 250.4C281.546 255.392 280.65 260 278.858 264.224C277.066 268.448 274.538 272.096 271.274 275.168C268.01 278.24 264.17 280.64 259.754 282.368C255.402 284.096 250.634 284.96 245.45 284.96ZM245.354 274.016C248.746 274.016 251.882 273.44 254.762 272.288C257.642 271.136 260.138 269.504 262.25 267.392C264.362 265.216 265.994 262.72 267.146 259.904C268.362 257.024 268.97 253.856 268.97 250.4C268.97 246.944 268.362 243.808 267.146 240.992C265.994 238.112 264.362 235.616 262.25 233.504C260.138 231.328 257.642 229.664 254.762 228.512C251.882 227.36 248.746 226.784 245.354 226.784C241.962 226.784 238.826 227.36 235.946 228.512C233.13 229.664 230.634 231.328 228.458 233.504C226.346 235.616 224.682 238.112 223.466 240.992C222.314 243.808 221.738 246.944 221.738 250.4C221.738 253.792 222.314 256.928 223.466 259.808C224.682 262.688 226.346 265.216 228.458 267.392C230.57 269.504 233.066 271.136 235.946 272.288C238.826 273.44 241.962 274.016 245.354 274.016ZM294.774 284V216.8H307.254V273.44H342.39V284H294.774ZM382.512 284.96C377.264 284.96 372.432 284.096 368.016 282.368C363.6 280.64 359.76 278.24 356.496 275.168C353.232 272.032 350.704 268.384 348.912 264.224C347.12 260 346.224 255.392 346.224 250.4C346.224 245.408 347.12 240.832 348.912 236.672C350.704 232.448 353.232 228.8 356.496 225.728C359.76 222.592 363.6 220.16 368.016 218.432C372.432 216.704 377.232 215.84 382.416 215.84C387.664 215.84 392.464 216.704 396.816 218.432C401.232 220.16 405.072 222.592 408.336 225.728C411.6 228.8 414.128 232.448 415.92 236.672C417.712 240.832 418.608 245.408 418.608 250.4C418.608 255.392 417.712 260 415.92 264.224C414.128 268.448 411.6 272.096 408.336 275.168C405.072 278.24 401.232 280.64 396.816 282.368C392.464 284.096 387.696 284.96 382.512 284.96ZM382.416 274.016C385.808 274.016 388.944 273.44 391.824 272.288C394.704 271.136 397.2 269.504 399.312 267.392C401.424 265.216 403.056 262.72 404.208 259.904C405.424 257.024 406.032 253.856 406.032 250.4C406.032 246.944 405.424 243.808 404.208 240.992C403.056 238.112 401.424 235.616 399.312 233.504C397.2 231.328 394.704 229.664 391.824 228.512C388.944 227.36 385.808 226.784 382.416 226.784C379.024 226.784 375.888 227.36 373.008 228.512C370.192 229.664 367.696 231.328 365.52 233.504C363.408 235.616 361.744 238.112 360.528 240.992C359.376 243.808 358.8 246.944 358.8 250.4C358.8 253.792 359.376 256.928 360.528 259.808C361.744 262.688 363.408 265.216 365.52 267.392C367.632 269.504 370.128 271.136 373.008 272.288C375.888 273.44 379.024 274.016 382.416 274.016ZM449.646 284L420.27 216.8H433.806L460.014 277.568H452.238L478.734 216.8H491.214L461.934 284H449.646Z" fill="#0C4045"/>
<path d="M143.947 374.77C139.738 374.77 135.708 374.18 131.858 372.999C128.008 371.767 124.954 370.201 122.695 368.302L126.16 360.525C128.316 362.219 130.985 363.631 134.168 364.76C137.351 365.889 140.61 366.454 143.947 366.454C146.77 366.454 149.055 366.146 150.8 365.53C152.545 364.914 153.829 364.093 154.65 363.066C155.471 361.988 155.882 360.782 155.882 359.447C155.882 357.804 155.292 356.495 154.111 355.52C152.93 354.493 151.39 353.698 149.491 353.133C147.643 352.517 145.564 351.952 143.254 351.439C140.995 350.926 138.711 350.335 136.401 349.668C134.142 348.949 132.063 348.051 130.164 346.973C128.316 345.844 126.802 344.355 125.621 342.507C124.44 340.659 123.85 338.298 123.85 335.423C123.85 332.497 124.62 329.828 126.16 327.415C127.751 324.951 130.138 323 133.321 321.563C136.555 320.074 140.636 319.33 145.564 319.33C148.798 319.33 152.006 319.741 155.189 320.562C158.372 321.383 161.144 322.564 163.505 324.104L160.348 331.881C157.935 330.444 155.446 329.391 152.879 328.724C150.312 328.005 147.848 327.646 145.487 327.646C142.715 327.646 140.456 327.98 138.711 328.647C137.017 329.314 135.759 330.187 134.938 331.265C134.168 332.343 133.783 333.575 133.783 334.961C133.783 336.604 134.348 337.938 135.477 338.965C136.658 339.94 138.172 340.71 140.02 341.275C141.919 341.84 144.024 342.404 146.334 342.969C148.644 343.482 150.928 344.073 153.187 344.74C155.497 345.407 157.576 346.28 159.424 347.358C161.323 348.436 162.838 349.899 163.967 351.747C165.148 353.595 165.738 355.931 165.738 358.754C165.738 361.629 164.942 364.298 163.351 366.762C161.811 369.175 159.424 371.125 156.19 372.614C152.956 374.051 148.875 374.77 143.947 374.77ZM198.841 374.77C191.449 374.77 185.648 372.691 181.439 368.533C177.281 364.375 175.202 358.369 175.202 350.515V320.1H185.212V350.13C185.212 355.674 186.392 359.704 188.754 362.219C191.166 364.734 194.554 365.992 198.918 365.992C203.281 365.992 206.643 364.734 209.005 362.219C211.366 359.704 212.547 355.674 212.547 350.13V320.1H222.403V350.515C222.403 358.369 220.298 364.375 216.089 368.533C211.931 372.691 206.181 374.77 198.841 374.77ZM253.131 374.77C248.921 374.77 244.892 374.18 241.042 372.999C237.192 371.767 234.137 370.201 231.879 368.302L235.344 360.525C237.5 362.219 240.169 363.631 243.352 364.76C246.534 365.889 249.794 366.454 253.131 366.454C255.954 366.454 258.238 366.146 259.984 365.53C261.729 364.914 263.012 364.093 263.834 363.066C264.655 361.988 265.066 360.782 265.066 359.447C265.066 357.804 264.475 356.495 263.295 355.52C262.114 354.493 260.574 353.698 258.675 353.133C256.827 352.517 254.748 351.952 252.438 351.439C250.179 350.926 247.895 350.335 245.585 349.668C243.326 348.949 241.247 348.051 239.348 346.973C237.5 345.844 235.985 344.355 234.805 342.507C233.624 340.659 233.034 338.298 233.034 335.423C233.034 332.497 233.804 329.828 235.344 327.415C236.935 324.951 239.322 323 242.505 321.563C245.739 320.074 249.82 319.33 254.748 319.33C257.982 319.33 261.19 319.741 264.373 320.562C267.555 321.383 270.327 322.564 272.689 324.104L269.532 331.881C267.119 330.444 264.629 329.391 262.063 328.724C259.496 328.005 257.032 327.646 254.671 327.646C251.899 327.646 249.64 327.98 247.895 328.647C246.201 329.314 244.943 330.187 244.122 331.265C243.352 332.343 242.967 333.575 242.967 334.961C242.967 336.604 243.531 337.938 244.661 338.965C245.841 339.94 247.356 340.71 249.204 341.275C251.103 341.84 253.208 342.404 255.518 342.969C257.828 343.482 260.112 344.073 262.371 344.74C264.681 345.407 266.76 346.28 268.608 347.358C270.507 348.436 272.021 349.899 273.151 351.747C274.331 353.595 274.922 355.931 274.922 358.754C274.922 361.629 274.126 364.298 272.535 366.762C270.995 369.175 268.608 371.125 265.374 372.614C262.14 374.051 258.059 374.77 253.131 374.77ZM322.731 320.1H332.741V374H322.731V320.1ZM294.857 374H284.847V320.1H294.857V374ZM323.501 350.9H294.01V342.353H323.501V350.9ZM347.184 374V320.1H357.194V374H347.184Z" fill="#F65E5A"/>
</svg>
